<svg version="1.1" xmlns="http://www.w3.org/2000/svg" xmlns:xlink="http://www.w3.org/1999/xlink" preserveAspectRatio="xMidYMid meet" viewBox="0 0 640 640" width="640" height="640"><defs><path d="M97.5 565C94.22 565 90.99 566.34 88.67 568.66C86.34 570.99 85 574.21 85 577.5C85 580.79 86.34 584.01 88.67 586.34C90.99 588.66 94.22 590 97.5 590C100.79 590 104.02 588.66 106.34 586.34C108.67 584.01 110 580.79 110 577.5C110 574.21 108.67 570.99 106.34 568.66C104.02 566.34 100.79 565 97.5 565Z" id="a2nS334po"></path><radialGradient id="gradienth1Hu7lIAT6" gradientUnits="userSpaceOnUse" cx="97.5" cy="565" dx="97.5" dy="590" r="25"><stop style="stop-color: #ffffff;stop-opacity: 1" offset="0%"></stop><stop style="stop-color: #010000;stop-opacity: 1" offset="100%"></stop></radialGradient><path d="M578.07 225.01C574.78 225.01 571.56 226.35 569.23 228.67C566.91 231 565.57 234.22 565.57 237.51C565.57 240.8 566.91 244.02 569.23 246.35C571.56 248.67 574.78 250.01 578.07 250.01C581.37 250.01 584.58 248.67 586.91 246.35C589.24 244.02 590.58 240.8 590.58 237.51C590.58 234.22 589.24 231 586.91 228.67C584.58 226.35 581.37 225.01 578.07 225.01Z" id="de8oEnjSo"></path><radialGradient id="gradienta3F76Nbw8s" gradientUnits="userSpaceOnUse" cx="578.07" cy="225.01" dx="578.07" dy="250.01" r="25"><stop style="stop-color: #ffffff;stop-opacity: 1" offset="0%"></stop><stop style="stop-color: #010000;stop-opacity: 1" offset="100%"></stop></radialGradient><path d="M627.49 0C596.74 0 350.75 0.01 320 0.02C313.1 0.02 307.5 5.61 307.5 12.52C307.5 14.9 307.5 26.81 307.5 48.26C236.41 67.31 196.91 77.89 189.01 80.01C182.34 81.8 178.39 88.65 180.17 95.32C184.27 110.6 204.74 186.99 241.58 324.5C209.71 356.37 192 374.08 188.46 377.62C181.7 367.75 170.35 361.26 157.5 361.26C145.5 361.26 49.51 361.26 37.51 361.26C16.83 361.26 0.01 378.08 0.01 398.76C0.01 419.13 0.01 582.13 0.01 602.5C0.01 623.18 16.83 640 37.51 640C49.51 640 145.51 640 157.51 640C175.07 640 189.85 627.86 193.9 611.53C195.39 612.82 207.28 623.19 208.76 624.49C220.24 634.49 234.94 640 250.16 640C287.89 640 589.76 640 627.49 640C634.4 640 639.99 634.4 639.99 627.5C639.99 566 639.99 74 639.99 12.5C639.99 9.19 638.67 6.01 636.33 3.66C633.99 1.32 630.81 0 627.49 0ZM157.5 615C145.5 615 49.51 615 37.51 615C30.61 615 25.01 609.39 25.01 602.5C25.01 582.13 25.01 419.13 25.01 398.76C25.01 391.86 30.61 386.26 37.51 386.26C40.67 386.26 56.51 386.26 85.01 386.26C85.01 472.65 85.01 520.65 85.01 530.25C85.01 537.15 90.6 542.75 97.51 542.75C104.41 542.75 110.01 537.15 110.01 530.25C110.01 520.65 110.01 472.65 110.01 386.26C138.5 386.26 154.34 386.26 157.5 386.26C164.4 386.26 170 391.86 170 398.76C170 412.34 170 480.25 170 602.5C166.26 610.83 162.1 615 157.5 615ZM307.5 74.14L307.5 120.46C302.47 121.81 299.68 122.56 299.12 122.71C295.92 123.57 293.19 125.66 291.53 128.53C289.87 131.4 289.42 134.81 290.28 138.02C295.09 155.94 284.41 174.43 266.48 179.24C263.28 180.1 260.54 182.2 258.89 185.07C257.23 187.95 256.78 191.37 257.65 194.57C260.9 206.6 277.14 266.74 306.37 374.99L281.29 374.99C273.53 344.65 269.22 327.79 268.36 324.41C267.95 322.8 267.23 321.32 266.26 320.03C262.35 305.42 242.78 232.39 207.56 100.92L307.5 74.14ZM307.5 283.26C293.82 232.61 286.22 204.47 284.7 198.84C294.22 193.93 302.02 186.57 307.5 177.79C307.5 191.85 307.5 227.01 307.5 283.26ZM250.16 615C250.16 615 250.16 615 250.16 615C240.98 615 232.11 611.68 225.19 605.64C223.18 603.89 213.11 595.11 195 579.32L195 406.43L249.58 351.86C255.51 375.1 258.81 388 259.47 390.59C260.89 396.12 265.87 399.99 271.58 399.99C296.16 399.99 492.76 400 517.34 400.01C526.99 400.01 534.84 407.86 534.84 417.51C534.84 427.16 526.99 435.01 517.34 435.01C504.75 435.01 404.01 435.01 391.41 435.01C384.51 435.01 378.91 440.6 378.91 447.51C378.91 454.41 384.51 460.01 391.41 460.01C407.92 460.01 539.96 460.01 556.46 460.01C566.11 460.01 573.96 467.86 573.96 477.51C573.96 487.16 566.11 495.01 556.46 495.01C539.96 495.01 407.92 495.01 391.41 495.01C384.51 495.01 378.91 500.6 378.91 507.51C378.91 514.41 384.51 520.01 391.41 520.01C405.24 520.01 515.89 520.01 529.72 520.01C539.37 520.01 547.22 527.86 547.22 537.51C547.22 547.16 539.37 555.01 529.72 555.01C515.89 555.01 405.24 555.01 391.41 555.01C384.51 555.01 378.91 560.6 378.91 567.51C378.91 574.41 384.51 580.01 391.41 580.01C400.98 580.01 477.51 580.01 487.08 580.01C496.73 580.01 504.58 587.86 504.58 597.51C504.58 607.15 496.73 615 487.08 615C455.49 615 376.51 615 250.16 615ZM614.99 615C561.47 615 531.74 615 525.79 615C528.22 609.66 529.58 603.74 529.58 597.5C529.58 591.26 528.22 585.34 525.79 580C526.18 580 529.32 580 529.72 580C553.15 580 572.22 560.93 572.22 537.5C572.22 530.67 570.58 524.21 567.7 518.48C585.7 513.54 598.96 497.04 598.96 477.5C598.96 468.02 595.84 459.26 590.57 452.18C590.57 436.34 590.57 309.6 590.57 293.76C590.57 286.86 584.97 281.26 578.07 281.26C571.17 281.26 565.57 286.86 565.57 293.76C565.57 307.98 565.57 421.77 565.57 436C562.63 435.36 559.59 435 556.46 435C556.42 435 556.09 435 556.05 435C558.47 429.66 559.84 423.74 559.84 417.5C559.84 394.07 540.77 375.01 517.34 375.01C515.33 375.01 499.25 375.01 497.24 375.01C518.58 365.86 533.56 344.65 533.56 320C533.56 287.01 506.73 260.18 473.74 260.18C440.76 260.18 413.92 287.01 413.92 320C413.92 344.65 428.91 365.86 450.24 375.01C445.69 375.01 422.91 375.01 381.91 375.01C381.91 232.4 381.91 153.17 381.91 137.33C404.24 132.46 421.86 114.84 426.73 92.51C436.13 92.51 511.35 92.51 520.76 92.51C525.62 114.84 543.24 132.46 565.57 137.33C565.57 141.22 565.57 172.31 565.57 176.19C565.57 183.09 571.17 188.69 578.07 188.69C584.97 188.69 590.57 183.09 590.57 176.19C590.57 171.19 590.57 131.17 590.57 126.17C590.57 119.27 584.97 113.67 578.07 113.67C559.51 113.67 544.42 98.57 544.42 80.01C544.42 73.11 538.82 67.51 531.92 67.51C520.28 67.51 427.2 67.51 415.57 67.51C408.67 67.51 403.07 73.11 403.07 80.01C403.07 98.57 387.97 113.67 369.42 113.67C362.51 113.67 356.92 119.27 356.92 126.17C356.92 142.76 356.92 225.7 356.92 375.01L332.5 375.01L332.5 25.01L614.99 25L614.99 615L614.99 615ZM438.92 320C438.92 300.8 454.55 285.18 473.75 285.18C492.94 285.18 508.57 300.8 508.57 320C508.57 339.2 492.95 354.82 473.75 354.82C454.54 354.82 438.92 339.2 438.92 320Z" id="a9pSZ6qi6"></path><radialGradient id="gradientc1XB0VQcUH" gradientUnits="userSpaceOnUse" cx="320" cy="0" dx="320" dy="640" r="640"><stop style="stop-color: #ffffff;stop-opacity: 1" offset="0%"></stop><stop style="stop-color: #010000;stop-opacity: 1" offset="100%"></stop></radialGradient></defs><g><g><g><use xlink:href="#a2nS334po" opacity="1" fill="url(#gradienth1Hu7lIAT6)"></use><g><use xlink:href="#a2nS334po" opacity="1" fill-opacity="0" stroke="#000000" stroke-width="1" stroke-opacity="0"></use></g></g><g><use xlink:href="#de8oEnjSo" opacity="1" fill="url(#gradienta3F76Nbw8s)"></use><g><use xlink:href="#de8oEnjSo" opacity="1" fill-opacity="0" stroke="#000000" stroke-width="1" stroke-opacity="0"></use></g></g><g><use xlink:href="#a9pSZ6qi6" opacity="1" fill="url(#gradientc1XB0VQcUH)"></use><g><use xlink:href="#a9pSZ6qi6" opacity="1" fill-opacity="0" stroke="#000000" stroke-width="1" stroke-opacity="0"></use></g></g></g></g></svg>